<svg width="100%" height="100%" viewBox="0 0 16 16" version="1.1" xmlns="http://www.w3.org/2000/svg" xmlns:xlink="http://www.w3.org/1999/xlink" xml:space="preserve" xmlns:serif="http://www.serif.com/" style="fill-rule:evenodd;clip-rule:evenodd;stroke-linejoin:round;stroke-miterlimit:2;">
    <g transform="matrix(1.66699,0,0,1.66699,-8.63649,-4.05319)">
        <rect x="9" y="6" width="1" height="1" style="fill:rgb(255,135,0);fill-opacity:0;"/>
    </g>
    <g transform="matrix(1.66699,0,0,1.66699,-7.0127,-7.8217)">
        <g transform="matrix(1,0,0,1,-2.99354,0.990205)">
            <rect x="9" y="6" width="1" height="1" style="fill:rgb(102,102,102);fill-opacity:0.2;"/>
        </g>
        <g transform="matrix(1,0,0,1,-2.99354,1.99069)">
            <rect x="9" y="6" width="1" height="1" style="fill:rgb(102,102,102);fill-opacity:0.4;"/>
        </g>
        <g transform="matrix(1,0,0,1,-2.99354,4.99216)">
            <rect x="9" y="6" width="1" height="1" style="fill:rgb(102,102,102);fill-opacity:0.4;"/>
        </g>
        <g transform="matrix(1,0,0,1,-2.99354,2.99118)">
            <rect x="9" y="6" width="1" height="1" style="fill:rgb(102,102,102);fill-opacity:0.2;"/>
        </g>
        <g transform="matrix(1,0,0,1,-2.99354,3.99167)">
            <rect x="9" y="6" width="1" height="1" style="fill:rgb(102,102,102);"/>
        </g>
        <g transform="matrix(1,0,0,1,-2.99354,5.99265)">
            <rect x="9" y="6" width="1" height="1" style="fill:rgb(102,102,102);fill-opacity:0;"/>
        </g>
        <g transform="matrix(1,0,0,1,2.0053,-0.0102838)">
            <rect x="9" y="6" width="1" height="1" style="fill:rgb(102,102,102);fill-opacity:0;"/>
        </g>
        <g transform="matrix(1,0,0,1,2.0053,0.990205)">
            <rect x="9" y="6" width="1" height="1" style="fill:rgb(102,102,102);fill-opacity:0.8;"/>
        </g>
        <g transform="matrix(1,0,0,1,2.0053,1.99069)">
            <rect x="9" y="6" width="1" height="1" style="fill:rgb(102,102,102);fill-opacity:0.4;"/>
        </g>
        <g transform="matrix(1,0,0,1,2.0053,4.99216)">
            <rect x="9" y="6" width="1" height="1" style="fill:rgb(102,102,102);fill-opacity:0.6;"/>
        </g>
        <g transform="matrix(1,0,0,1,2.0053,2.99118)">
            <rect x="9" y="6" width="1" height="1" style="fill:rgb(102,102,102);"/>
        </g>
        <g transform="matrix(1,0,0,1,2.0053,3.99167)">
            <rect x="9" y="6" width="1" height="1" style="fill:rgb(102,102,102);fill-opacity:0.4;"/>
        </g>
        <g transform="matrix(1,0,0,1,2.0053,5.99265)">
            <rect x="9" y="6" width="1" height="1" style="fill:rgb(102,102,102);fill-opacity:0.2;"/>
        </g>
        <g transform="matrix(1,0,0,1,1.00553,-0.0102838)">
            <rect x="9" y="6" width="1" height="1" style="fill:rgb(102,102,102);fill-opacity:0.6;"/>
        </g>
        <g transform="matrix(1,0,0,1,1.00553,0.990205)">
            <rect x="9" y="6" width="1" height="1" style="fill:rgb(102,102,102);fill-opacity:0.4;"/>
        </g>
        <g transform="matrix(1,0,0,1,1.00553,1.99069)">
            <rect x="9" y="6" width="1" height="1" style="fill:rgb(102,102,102);fill-opacity:0.6;"/>
        </g>
        <g transform="matrix(1,0,0,1,1.00553,4.99216)">
            <rect x="9" y="6" width="1" height="1" style="fill:rgb(102,102,102);fill-opacity:0;"/>
        </g>
        <g transform="matrix(1,0,0,1,1.00553,2.99118)">
            <rect x="9" y="6" width="1" height="1" style="fill:rgb(102,102,102);fill-opacity:0.2;"/>
        </g>
        <g transform="matrix(1,0,0,1,1.00553,3.99167)">
            <rect x="9" y="6" width="1" height="1" style="fill:rgb(102,102,102);"/>
        </g>
        <g transform="matrix(1,0,0,1,1.00553,5.99265)">
            <rect x="9" y="6" width="1" height="1" style="fill:rgb(102,102,102);fill-opacity:0.8;"/>
        </g>
        <g transform="matrix(1,0,0,1,0.00576387,-0.0102838)">
            <rect x="9" y="6" width="1" height="1" style="fill:rgb(102,102,102);fill-opacity:0.2;"/>
        </g>
        <g transform="matrix(1,0,0,1,0.00576387,0.990205)">
            <rect x="9" y="6" width="1" height="1" style="fill:rgb(102,102,102);fill-opacity:0;"/>
        </g>
        <g transform="matrix(1,0,0,1,0.00576387,1.99069)">
            <rect x="9" y="6" width="1" height="1" style="fill:rgb(102,102,102);fill-opacity:0.8;"/>
        </g>
        <g transform="matrix(1,0,0,1,0.00576387,4.99216)">
            <rect x="9" y="6" width="1" height="1" style="fill:rgb(102,102,102);fill-opacity:0.2;"/>
        </g>
        <g transform="matrix(1,0,0,1,0.00576387,2.99118)">
            <rect x="9" y="6" width="1" height="1" style="fill:rgb(102,102,102);fill-opacity:0.6;"/>
        </g>
        <g transform="matrix(1,0,0,1,0.00576387,3.99167)">
            <rect x="9" y="6" width="1" height="1" style="fill:rgb(102,102,102);fill-opacity:0.4;"/>
        </g>
        <g transform="matrix(1,0,0,1,0.00576387,5.99265)">
            <rect x="9" y="6" width="1" height="1" style="fill:rgb(102,102,102);fill-opacity:0.4;"/>
        </g>
        <g transform="matrix(1,0,0,1,-0.994005,-0.0102838)">
            <rect x="9" y="6" width="1" height="1" style="fill:rgb(102,102,102);fill-opacity:0.4;"/>
        </g>
        <g transform="matrix(1,0,0,1,-0.994005,0.990205)">
            <rect x="9" y="6" width="1" height="1" style="fill:rgb(102,102,102);fill-opacity:0.2;"/>
        </g>
        <g transform="matrix(1,0,0,1,-0.994005,1.99069)">
            <rect x="9" y="6" width="1" height="1" style="fill:rgb(102,102,102);fill-opacity:0.4;"/>
        </g>
        <g transform="matrix(1,0,0,1,-0.994005,4.99216)">
            <rect x="9" y="6" width="1" height="1" style="fill:rgb(102,102,102);fill-opacity:0.6;"/>
        </g>
        <g transform="matrix(1,0,0,1,-0.994005,2.99118)">
            <rect x="9" y="6" width="1" height="1" style="fill:rgb(102,102,102);"/>
        </g>
        <g transform="matrix(1,0,0,1,-0.994005,3.99167)">
            <rect x="9" y="6" width="1" height="1" style="fill:rgb(102,102,102);fill-opacity:0.2;"/>
        </g>
        <g transform="matrix(1,0,0,1,-0.994005,5.99265)">
            <rect x="9" y="6" width="1" height="1" style="fill:rgb(102,102,102);fill-opacity:0;"/>
        </g>
        <g transform="matrix(1,0,0,1,-1.99377,-0.0102838)">
            <rect x="9" y="6" width="1" height="1" style="fill:rgb(102,102,102);"/>
        </g>
        <g transform="matrix(1,0,0,1,-1.99377,0.990205)">
            <rect x="9" y="6" width="1" height="1" style="fill:rgb(102,102,102);fill-opacity:0.6;"/>
        </g>
        <g transform="matrix(1,0,0,1,-1.99377,1.99069)">
            <rect x="9" y="6" width="1" height="1" style="fill:rgb(102,102,102);fill-opacity:0.8;"/>
        </g>
        <g transform="matrix(1,0,0,1,-1.99377,4.99216)">
            <rect x="9" y="6" width="1" height="1" style="fill:rgb(102,102,102);"/>
        </g>
        <g transform="matrix(1,0,0,1,-1.99377,2.99118)">
            <rect x="9" y="6" width="1" height="1" style="fill:rgb(102,102,102);fill-opacity:0;"/>
        </g>
        <g transform="matrix(1,0,0,1,-1.99377,3.99167)">
            <rect x="9" y="6" width="1" height="1" style="fill:rgb(102,102,102);fill-opacity:0.4;"/>
        </g>
        <g transform="matrix(1,0,0,1,-1.99377,5.99265)">
            <rect x="9" y="6" width="1" height="1" style="fill:rgb(102,102,102);fill-opacity:0.6;"/>
        </g>
    </g>
</svg>
