<svg width="100%" height="100%" viewBox="0 0 16 16" version="1.1" xmlns="http://www.w3.org/2000/svg" xmlns:xlink="http://www.w3.org/1999/xlink" xml:space="preserve" xmlns:serif="http://www.serif.com/" style="fill-rule:evenodd;clip-rule:evenodd;stroke-linejoin:round;stroke-miterlimit:2;">
    <g transform="matrix(0.032714,0,0,0.0323285,1.13173,7.73432)" fill="currentColor">
        <g>
            <g transform="matrix(0.814312,0,0,0.824022,1.48548,-202.73)">
                <path d="M264,388L248,388C245.806,388 244,389.806 244,392L244,488C244,490.194 245.806,492 248,492C250.194,492 252,490.194 252,488L252,396L260,396L260,488C260,490.194 261.806,492 264,492C266.194,492 268,490.194 268,488L268,392C268,389.806 266.194,388 264,388Z" style="fill-rule:nonzero;"/>
            </g>
            <g transform="matrix(0.814312,0,0,0.824022,1.48548,-202.73)">
                <path d="M489.34,149.69C482.457,141.643 472.923,136.311 462.464,134.659L370.2,120.088C352.966,117.371 335.547,116.004 318.1,116L276.015,116L276.005,107.6C285.275,105.692 291.99,97.464 292,88L292,66.455C301.627,62.917 308.046,53.676 308,43.42L308,32C308,29.806 306.194,28 304,28L285.78,28C282.57,27.996 279.401,27.275 276.504,25.891L270.23,22.891C266.253,20.986 261.899,19.997 257.49,19.997C241.312,19.997 228,33.309 228,49.487C228,49.488 228,49.489 228,49.49L228,76C228.005,81.708 231.059,86.998 236,89.855L236,116L193.9,116C176.453,116.004 159.034,117.371 141.8,120.088L49.538,134.659C28.017,138.047 12,156.783 12,178.569C12,182.526 12.528,186.465 13.571,190.282L59.029,356.963C59.973,360.436 63.15,362.864 66.749,362.864C67.607,362.864 68.46,362.726 69.275,362.455L86.511,356.709C89.782,355.637 92.006,352.562 92,349.12L92,326.38L95.59,329.648C97.235,331.147 99.381,331.98 101.607,331.984L101.629,331.984C105.535,331.984 109.013,329.432 110.185,325.706C128.031,327.588 146.069,325.085 162.729,318.417L168.77,316L184.935,316L165.76,347.958C148.655,347.612 131.908,342.965 117.071,334.446C116.465,334.098 115.778,333.915 115.08,333.915C112.885,333.915 111.08,335.721 111.08,337.915C111.08,339.349 111.85,340.677 113.095,341.388C128.631,350.293 146.104,355.283 164,355.924L164,488C164,490.194 165.806,492 168,492C170.194,492 172,490.194 172,488L172,353.108L194.265,316L220,316C222.194,316 224,314.194 224,312C224,309.806 222.194,308 220,308L172,308L172,168C172,168 172,168 172,168C172,165.805 170.194,164 168,164C167.78,164 167.559,164.018 167.342,164.054L99.005,175.444L90.824,136.238L143.044,127.991C159.866,125.339 176.87,124.004 193.9,124L238.346,124L249.246,134.9L224.79,147.133L210.829,133.171C210.079,132.421 209.061,131.999 208,131.999C205.805,131.999 203.999,133.805 203.999,136C203.999,137.061 204.421,138.079 205.171,138.829L221.171,154.829C222.386,156.044 224.253,156.346 225.789,155.578L238.211,149.367L243.925,160.794L232.012,311.685C231.946,312.54 232.157,313.394 232.612,314.12L252.612,346.12C253.342,347.288 254.626,348 256.004,348C257.382,348 258.666,347.288 259.396,346.12L279.396,314.12C279.851,313.394 280.062,312.54 279.996,311.685L268.083,160.785L273.753,149.343L286.219,155.576C287.755,156.344 289.622,156.042 290.837,154.827L306.837,138.827C307.587,138.077 308.009,137.059 308.009,135.998C308.009,133.803 306.203,131.997 304.008,131.997C302.947,131.997 301.929,132.419 301.179,133.169L287.21,147.133L262.756,134.906L273.675,124L318.1,124C335.129,124.004 352.132,125.339 368.953,127.991L421.173,136.238L413,175.444L344.663,164.054C344.444,164.017 344.222,163.999 344,163.999C341.806,163.999 340,165.804 340,167.999C340,167.999 340,168 340,168L340,308L292,308C289.806,308 288,309.806 288,312C288,314.194 289.806,316 292,316L317.735,316L340,353.108L340,488C340,490.194 341.806,492 344,492C346.194,492 348,490.194 348,488L348,355.922C366.182,355.259 383.923,350.12 399.644,340.961C400.872,340.245 401.629,338.927 401.629,337.506C401.629,335.311 399.823,333.505 397.628,333.505C396.92,333.505 396.225,333.693 395.613,334.05C380.601,342.794 363.611,347.582 346.243,347.963L327.065,316L343.23,316L349.271,318.417C365.926,325.1 383.968,327.6 401.813,325.697C402.981,329.429 406.461,331.987 410.372,331.987C412.606,331.987 414.762,331.152 416.413,329.647L420,326.38L420,349.12C419.993,352.557 422.211,355.629 425.475,356.705L442.72,362.453C443.539,362.728 444.397,362.868 445.261,362.868C448.856,362.868 452.028,360.441 452.969,356.972L498.428,190.286C502.307,176.096 498.898,160.868 489.34,149.686L489.34,149.69ZM164,309.292L159.758,310.992C143.827,317.355 126.551,319.621 109.518,317.583L76.932,187.233L164,172.722L164,309.292ZM91.108,176.76L71.342,180.054C69.422,180.374 68,182.053 68,183.999C68,184.327 68.041,184.653 68.12,184.97L102.571,322.778C102.59,322.855 102.6,322.934 102.6,323.014C102.6,323.546 102.162,323.984 101.63,323.984C101.63,323.984 101.629,323.984 101.629,323.984C101.386,323.992 101.15,323.9 100.975,323.731L90.692,314.372C89.956,313.702 88.995,313.331 88,313.331C85.806,313.331 84,315.136 84,317.33L84,349.115L66.754,354.868L21.288,188.174C20.433,185.044 20,181.815 20,178.57C20,160.703 33.137,145.337 50.788,142.561L82.917,137.487L91.108,176.76ZM236,49.49C236,37.701 245.702,28 257.491,28C260.705,28 263.878,28.721 266.776,30.109L273.05,33.109C277.025,35.007 281.375,35.995 285.78,36L300,36L300,43.42C300.039,51.147 294.642,57.916 287.1,59.6C285.855,59.891 284.579,60.031 283.3,60.018C281.55,60.009 279.813,59.721 278.155,59.163L257.265,52.203C256.857,52.067 256.43,51.998 256,51.998C253.806,51.998 252,53.803 252,55.998C252,55.998 252,55.999 252,56C252.003,57.912 251.662,59.809 250.991,61.6C246.216,59.292 240.594,59.497 236,62.147L236,49.49ZM260.012,160.315L271.909,311L256,336.453L240.091,311L251.991,160.316C252.047,159.592 251.905,158.866 251.581,158.216L245.37,145.794L256,140.472L266.59,145.767L260.416,158.224C260.095,158.872 259.956,159.594 260.012,160.315ZM256,130.345L244,118.345L244,87.31C244,85.617 242.925,84.099 241.328,83.537C238.147,82.405 236.01,79.376 236.01,76C236.01,71.615 239.615,68.006 244,68C246.091,67.99 248.103,68.81 249.591,70.278C250.339,71.016 251.349,71.43 252.4,71.43C253.703,71.43 254.928,70.793 255.676,69.725C257.449,67.201 258.714,64.356 259.401,61.349L275.62,66.749C278.082,67.576 280.659,68.003 283.256,68.016C283.504,68.016 283.756,68.002 284,67.995L284,88C283.993,94.58 278.58,99.993 272,100C267.086,100.004 262.256,98.712 258,96.256C257.414,95.938 256.758,95.771 256.091,95.771C253.897,95.771 252.091,97.577 252.091,99.771C252.091,101.161 252.815,102.454 254,103.181C258.302,105.659 263.072,107.219 268.008,107.762L268.021,118.344L256,130.345ZM352.24,310.989L347.998,309.289L347.998,172.722L435.066,187.233L402.481,317.586C385.448,319.625 368.172,317.357 352.242,310.989L352.24,310.989ZM490.711,188.178L445.255,354.865L428,349.12L428,317.33C428,315.136 426.194,313.331 424,313.331C423.005,313.331 422.044,313.702 421.308,314.372L411.025,323.731C410.847,323.893 410.615,323.984 410.374,323.985C410.374,323.985 410.373,323.985 410.373,323.985C409.84,323.985 409.402,323.547 409.402,323.014C409.402,322.934 409.412,322.855 409.431,322.778L443.88,184.97C443.959,184.653 444,184.327 444,183.999C444,182.053 442.578,180.374 440.658,180.054L420.892,176.76L429.087,137.487L461.217,142.561C478.866,145.34 492,160.704 492,178.57C492,181.816 491.566,185.047 490.711,188.178Z" style="fill-rule:nonzero;"/>
            </g>
            <g transform="matrix(0.814312,0,0,0.824022,1.48548,-202.73)">
                <path d="M125.171,373.171L117.171,381.171C116.421,381.921 115.999,382.939 115.999,384C115.999,386.195 117.805,388.001 120,388.001C121.061,388.001 122.079,387.579 122.829,386.829L130.829,378.829C131.579,378.079 132.001,377.061 132.001,376C132.001,373.805 130.195,371.999 128,371.999C126.939,371.999 125.921,372.421 125.171,373.171Z" style="fill-rule:nonzero;"/>
            </g>
            <g transform="matrix(0.814312,0,0,0.824022,1.48548,-202.73)">
                <path d="M144,376C141.806,376 140,377.806 140,380L140,392C140,394.194 141.806,396 144,396C146.194,396 148,394.194 148,392L148,380C148,377.806 146.194,376 144,376Z" style="fill-rule:nonzero;"/>
            </g>
            <g transform="matrix(0.814312,0,0,0.824022,1.48548,-202.73)">
                <path d="M124,360C124,357.806 122.194,356 120,356L108,356C105.806,356 104,357.806 104,360C104,362.194 105.806,364 108,364L120,364C122.194,364 124,362.194 124,360Z" style="fill-rule:nonzero;"/>
            </g>
            <g transform="matrix(0.814312,0,0,0.824022,1.48548,-202.73)">
                <path d="M386.829,381.171C386.079,380.421 385.061,379.999 384,379.999C381.805,379.999 379.999,381.805 379.999,384C379.999,385.061 380.421,386.079 381.171,386.829L389.171,394.829C389.921,395.579 390.939,396.001 392,396.001C394.195,396.001 396.001,394.195 396.001,392C396.001,390.939 395.579,389.921 394.829,389.171L386.829,381.171Z" style="fill-rule:nonzero;"/>
            </g>
            <g transform="matrix(0.814312,0,0,0.824022,1.48548,-202.73)">
                <path d="M368,384C365.806,384 364,385.806 364,388L364,400C364,402.194 365.806,404 368,404C370.194,404 372,402.194 372,400L372,388C372,385.806 370.194,384 368,384Z" style="fill-rule:nonzero;"/>
            </g>
            <g transform="matrix(0.814312,0,0,0.824022,1.48548,-202.73)">
                <path d="M404,364L392,364C389.806,364 388,365.806 388,368C388,370.194 389.806,372 392,372L404,372C406.194,372 408,370.194 408,368C408,365.806 406.194,364 404,364Z" style="fill-rule:nonzero;"/>
            </g>
        </g>
    </g>
</svg>
